<?xml version="1.0" encoding="UTF-8" ?>
<!DOCTYPE svg PUBLIC "-//W3C//DTD SVG 1.1//EN" "http://www.w3.org/Graphics/SVG/1.1/DTD/svg11.dtd">
<svg width="1456pt" height="622pt" viewBox="0 0 1456 622" version="1.1" xmlns="http://www.w3.org/2000/svg">
<g id="#000000ff">
<path fill="#000000" opacity="1.00" d=" M 565.75 0.00 L 890.26 0.00 C 914.63 11.11 939.36 21.41 963.86 32.23 C 964.16 86.20 963.99 140.17 963.92 194.14 C 939.64 194.38 915.35 194.38 891.07 194.14 C 890.89 153.44 891.11 112.75 890.94 72.05 C 783.65 71.95 676.35 71.97 569.06 72.06 C 568.98 142.41 568.98 212.75 569.05 283.09 C 584.46 273.97 599.61 264.29 615.92 256.81 C 622.77 253.63 629.72 250.67 636.64 247.65 C 636.91 205.46 636.46 163.26 636.85 121.08 C 691.90 120.93 746.95 121.04 802.00 120.98 C 809.88 121.02 817.76 120.85 825.64 121.18 C 825.52 145.78 825.57 170.38 825.63 194.99 C 807.77 195.68 789.89 195.09 772.02 195.28 C 751.67 195.29 731.31 195.28 710.95 195.29 C 710.52 204.88 710.60 214.49 710.91 224.09 C 721.20 222.74 731.52 221.54 741.85 220.38 C 757.53 218.44 773.38 219.55 789.10 220.39 C 801.00 220.97 812.43 224.58 823.59 228.47 C 833.07 231.90 842.29 236.48 849.91 243.17 C 852.86 245.71 855.79 248.81 859.90 249.19 C 878.58 251.84 897.58 256.80 913.22 267.77 C 922.55 274.16 929.81 284.51 930.21 296.08 C 930.42 308.46 924.80 320.09 917.69 329.91 C 915.21 323.40 912.67 316.41 907.09 311.89 C 900.31 306.55 891.53 304.58 883.08 304.09 C 870.91 303.22 858.89 305.70 846.90 307.26 C 835.76 308.51 825.49 313.26 815.02 316.95 C 797.36 323.72 780.07 331.74 764.35 342.33 C 752.01 350.69 739.33 359.04 729.57 370.45 C 723.68 377.30 719.61 385.42 715.13 393.19 C 713.24 396.58 711.14 400.05 710.87 404.03 C 710.33 410.76 710.75 417.52 710.88 424.26 C 748.95 424.66 787.02 424.35 825.09 424.37 C 825.77 433.58 825.31 442.81 825.41 452.04 C 825.34 467.33 825.64 482.63 825.25 497.92 C 762.45 498.08 699.65 498.01 636.86 497.92 C 636.51 443.93 636.81 389.93 636.72 335.94 C 636.48 329.42 638.31 321.84 633.60 316.43 C 628.23 309.74 618.91 309.30 611.00 309.11 C 600.49 308.70 590.13 310.65 579.90 312.81 C 597.19 299.30 616.05 287.47 636.59 279.54 C 636.85 273.35 636.83 267.14 636.52 260.95 C 630.12 262.15 624.18 264.86 618.14 267.15 C 601.44 273.31 585.25 280.70 569.20 288.35 C 568.70 311.88 569.13 335.43 569.00 358.98 C 569.00 421.63 568.96 484.29 569.06 546.94 C 676.36 547.05 783.65 547.02 890.94 546.94 C 891.02 499.31 891.01 451.68 890.95 404.06 C 868.65 403.87 846.35 404.12 824.05 403.94 C 823.99 385.31 823.94 366.68 824.06 348.05 C 870.68 347.97 917.31 347.98 963.94 348.05 C 964.07 417.02 963.96 485.99 964.00 554.96 C 963.93 566.57 964.18 578.17 963.87 589.78 C 941.14 599.80 918.28 609.51 895.59 619.60 C 893.02 620.75 890.31 621.57 887.53 622.00 L 568.49 622.00 C 562.37 621.10 557.04 617.80 551.41 615.48 C 531.68 606.50 511.64 598.19 492.03 588.95 C 491.99 403.65 491.99 218.36 492.04 33.07 C 516.44 21.66 541.38 11.46 565.75 0.00 M 709.93 240.73 C 709.96 246.15 709.97 251.57 710.12 256.98 C 727.22 253.53 744.52 251.03 761.93 249.70 C 782.94 248.35 804.37 248.40 824.87 253.77 C 833.15 255.89 841.30 259.12 848.05 264.47 C 844.10 266.57 840.11 268.72 836.77 271.73 C 829.88 277.68 825.46 286.12 823.62 294.97 C 837.06 293.86 850.54 292.77 864.04 293.04 C 876.96 293.16 890.10 294.77 902.06 299.90 C 908.69 302.85 913.56 308.42 918.75 313.29 C 920.21 309.27 922.44 305.37 922.51 301.00 C 922.55 296.95 922.95 292.68 921.21 288.91 C 917.29 279.67 908.91 273.06 899.87 269.19 C 884.74 262.40 868.15 260.01 851.82 258.22 C 844.98 252.83 837.67 247.94 829.62 244.53 C 813.93 237.80 796.80 234.91 779.82 234.30 C 756.38 233.61 732.83 235.69 709.93 240.73 M 801.14 260.25 C 806.62 265.32 813.42 268.61 819.54 272.82 C 822.98 269.74 826.74 266.99 829.63 263.35 C 826.42 261.46 822.61 261.19 818.99 260.91 C 813.04 260.53 807.10 259.70 801.14 260.25 Z" />
<path fill="#000000" opacity="1.00" d=" M 0.00 34.10 C 155.33 33.88 310.66 34.06 466.00 34.00 C 466.00 172.33 466.00 310.67 466.00 449.00 C 378.62 449.01 291.24 448.99 203.87 449.01 C 200.81 442.93 197.83 436.82 194.77 430.74 C 197.53 428.77 200.34 426.87 203.16 425.01 C 207.05 427.60 210.90 430.24 214.79 432.81 C 213.54 428.30 212.22 423.82 210.99 419.32 C 214.66 416.46 218.33 413.61 221.97 410.72 C 217.31 410.51 212.64 410.37 207.98 410.18 C 206.34 405.80 204.77 401.41 203.18 397.02 C 201.54 401.42 200.02 405.87 198.27 410.23 C 193.83 410.35 189.39 410.51 184.95 410.69 C 179.73 400.04 174.48 389.42 169.31 378.76 C 171.89 380.45 174.45 382.19 177.02 383.92 C 175.74 379.41 174.43 374.91 173.22 370.38 C 176.88 367.53 180.54 364.68 184.19 361.80 C 179.55 361.61 174.90 361.45 170.26 361.33 C 168.55 356.94 166.99 352.50 165.38 348.07 C 163.80 352.43 162.21 356.78 160.65 361.15 C 156.80 353.47 152.97 345.78 149.17 338.07 C 224.44 337.96 299.72 338.00 375.00 338.00 C 400.80 337.88 426.61 338.24 452.41 337.81 C 448.38 327.21 442.82 317.27 438.05 307.00 C 336.70 307.00 235.35 307.01 134.00 306.97 C 114.29 266.67 94.35 226.49 74.82 186.11 C 181.36 185.79 287.91 186.21 394.46 185.89 C 393.70 182.75 392.72 179.64 391.17 176.79 C 387.36 169.58 383.85 162.21 380.02 155.00 C 311.02 155.00 242.02 155.00 173.02 155.00 C 135.10 154.91 97.19 155.18 59.28 154.86 C 39.52 114.65 19.83 74.39 0.00 34.21 L 0.00 34.10 M 333.21 64.12 C 328.61 64.25 324.01 64.40 319.42 64.61 C 322.91 67.64 326.67 70.34 330.27 73.24 C 329.01 77.74 327.66 82.21 326.41 86.71 C 330.30 84.11 334.17 81.49 338.05 78.88 C 341.94 81.48 345.81 84.12 349.71 86.71 C 348.42 82.21 347.10 77.72 345.90 73.19 C 349.56 70.31 353.25 67.46 356.90 64.57 C 352.23 64.43 347.55 64.26 342.88 64.10 C 341.25 59.74 339.74 55.34 338.04 51.01 C 336.37 55.36 334.89 59.78 333.21 64.12 M 63.73 50.99 C 62.12 55.35 60.56 59.73 58.96 64.09 C 54.29 64.26 49.61 64.43 44.94 64.58 C 48.59 67.50 52.32 70.34 55.97 73.26 C 54.72 77.75 53.36 82.21 52.14 86.71 C 56.04 84.11 59.88 81.43 63.82 78.89 C 67.67 81.53 71.54 84.12 75.42 86.71 C 74.11 82.30 72.98 77.84 71.52 73.48 C 74.95 70.27 78.91 67.71 82.45 64.61 C 77.77 64.34 73.08 64.41 68.42 63.94 C 66.98 59.58 65.40 55.26 63.73 50.99 M 150.22 64.18 C 145.66 64.20 141.10 64.41 136.55 64.61 C 140.04 67.60 143.73 70.34 147.36 73.16 C 146.21 77.70 144.80 82.17 143.56 86.69 C 147.44 84.11 151.30 81.52 155.14 78.89 C 159.07 81.44 162.93 84.11 166.83 86.71 C 165.58 82.20 164.23 77.72 163.03 73.20 C 166.69 70.32 170.37 67.48 174.03 64.59 C 169.35 64.42 164.67 64.26 160.00 64.09 C 158.40 59.73 156.84 55.36 155.24 51.01 C 153.43 55.35 152.11 59.87 150.22 64.18 M 246.61 50.91 C 245.02 55.30 243.43 59.69 241.83 64.07 C 237.16 64.28 232.48 64.41 227.81 64.59 C 231.46 67.51 235.19 70.34 238.83 73.27 C 237.55 77.75 236.24 82.22 234.99 86.70 C 238.90 84.12 242.75 81.43 246.69 78.88 C 250.52 81.52 254.38 84.11 258.25 86.69 C 257.02 82.17 255.63 77.69 254.48 73.15 C 258.13 70.33 261.80 67.51 265.38 64.60 C 260.70 64.37 256.01 64.37 251.33 63.98 C 249.83 59.60 248.22 55.25 246.61 50.91 M 429.43 50.98 C 427.88 55.35 426.27 59.69 424.73 64.05 C 420.05 64.30 415.38 64.41 410.70 64.58 C 414.31 67.49 417.98 70.34 421.66 73.17 C 420.51 77.71 419.09 82.18 417.86 86.70 C 421.79 84.12 425.61 81.39 429.60 78.89 C 433.39 81.56 437.28 84.11 441.13 86.71 C 439.87 82.19 438.50 77.71 437.33 73.17 C 440.97 70.32 444.67 67.56 448.20 64.58 C 443.56 64.41 438.92 64.27 434.28 64.08 C 432.67 59.71 431.19 55.29 429.43 50.98 M 111.69 102.53 C 110.05 106.87 108.54 111.25 106.89 115.58 C 102.22 115.72 97.56 115.90 92.89 116.05 C 96.54 118.87 100.10 121.80 103.84 124.50 C 102.88 129.13 101.30 133.60 100.09 138.16 C 103.99 135.58 107.86 132.94 111.75 130.34 C 115.61 132.95 119.47 135.58 123.37 138.14 C 122.11 133.65 120.78 129.18 119.56 124.68 C 123.21 121.78 126.91 118.95 130.57 116.06 C 125.89 115.89 121.22 115.73 116.54 115.56 C 114.91 111.22 113.47 106.81 111.69 102.53 M 198.36 115.55 C 193.68 115.74 189.01 115.88 184.33 116.06 C 188.01 118.96 191.74 121.80 195.37 124.75 C 194.09 129.20 192.79 133.65 191.56 138.12 C 195.46 135.57 199.30 132.94 203.16 130.33 C 207.04 132.94 210.91 135.58 214.81 138.16 C 213.57 133.61 212.10 129.12 211.05 124.52 C 214.78 121.80 218.36 118.88 222.00 116.06 C 217.36 115.90 212.73 115.69 208.08 115.62 C 206.32 111.37 204.94 106.98 203.26 102.70 C 201.28 106.85 200.02 111.28 198.36 115.55 M 289.77 115.57 C 285.11 115.73 280.45 115.89 275.79 116.05 C 279.44 118.99 283.20 121.79 286.82 124.77 C 285.50 129.22 284.22 133.67 282.95 138.14 C 286.90 135.59 290.74 132.86 294.70 130.34 C 298.49 133.01 302.35 135.57 306.21 138.13 C 304.98 133.64 303.65 129.17 302.43 124.68 C 306.07 121.78 309.78 118.95 313.43 116.05 C 308.75 115.89 304.08 115.74 299.41 115.55 C 297.81 111.24 296.28 106.89 294.66 102.58 C 292.80 106.82 291.45 111.26 289.77 115.57 M 381.27 115.52 C 376.58 115.77 371.89 115.88 367.20 116.05 C 370.87 118.97 374.62 121.79 378.25 124.77 C 376.95 129.23 375.65 133.68 374.38 138.14 C 378.30 135.59 382.15 132.94 386.03 130.34 C 389.91 132.95 393.78 135.58 397.69 138.16 C 396.46 133.58 394.81 129.10 394.00 124.41 C 397.73 121.77 401.25 118.84 404.87 116.05 C 400.18 115.88 395.49 115.76 390.81 115.53 C 389.27 111.28 387.78 107.01 386.14 102.80 C 384.08 106.86 382.90 111.28 381.27 115.52 M 429.46 152.61 C 427.87 156.96 426.29 161.32 424.73 165.68 C 420.04 165.93 415.34 165.99 410.66 166.28 C 414.36 169.13 418.03 172.00 421.69 174.90 C 420.44 179.38 419.11 183.84 417.86 188.33 C 421.71 185.76 425.58 183.23 429.34 180.54 C 433.35 183.00 437.17 185.77 441.12 188.34 C 439.87 183.83 438.52 179.36 437.32 174.84 C 440.99 171.98 444.66 169.11 448.33 166.25 C 443.64 166.01 438.94 165.92 434.26 165.68 C 432.67 161.32 431.15 156.93 429.46 152.61 M 294.56 201.73 C 293.01 206.12 291.40 210.50 289.80 214.88 C 285.12 215.09 280.44 215.21 275.77 215.40 C 279.44 218.33 283.20 221.14 286.82 224.14 C 285.50 228.58 284.22 233.03 282.97 237.49 C 286.89 234.93 290.73 232.23 294.67 229.70 C 298.49 232.33 302.34 234.92 306.21 237.48 C 304.98 232.98 303.63 228.51 302.44 224.00 C 306.09 221.13 309.78 218.30 313.41 215.40 C 308.73 215.20 304.04 215.10 299.37 214.86 C 297.80 210.47 296.22 206.08 294.56 201.73 M 385.98 201.91 C 384.33 206.22 382.85 210.59 381.21 214.90 C 376.54 215.07 371.87 215.21 367.20 215.40 C 370.87 218.30 374.58 221.15 378.24 224.08 C 376.98 228.56 375.64 233.02 374.39 237.51 C 378.28 234.93 382.14 232.29 386.02 229.70 C 389.92 232.29 393.78 234.93 397.68 237.52 C 396.39 233.02 395.08 228.53 393.87 224.00 C 397.54 221.13 401.21 218.27 404.89 215.40 C 400.20 215.21 395.51 215.08 390.83 214.89 C 389.20 210.56 387.79 206.16 385.98 201.91 M 111.71 201.79 C 110.10 206.15 108.54 210.52 106.94 214.89 C 102.25 215.08 97.56 215.22 92.88 215.40 C 96.57 218.29 100.30 221.14 103.95 224.10 C 102.86 227.66 102.06 231.32 100.62 234.77 C 101.09 235.35 101.55 235.94 102.01 236.54 C 105.04 233.95 108.49 231.94 111.77 229.70 C 115.63 232.31 119.48 234.93 123.38 237.50 C 122.11 233.00 120.77 228.52 119.57 224.00 C 123.22 221.14 126.91 218.31 130.52 215.41 C 125.83 215.18 121.13 215.14 116.44 214.82 C 114.94 210.44 113.38 206.09 111.71 201.79 M 198.53 214.75 C 193.81 215.20 189.07 215.16 184.35 215.41 C 188.01 218.31 191.72 221.15 195.37 224.07 C 194.11 228.54 192.79 233.00 191.54 237.48 C 195.44 234.93 199.29 232.30 203.15 229.70 C 207.05 232.28 210.92 234.93 214.82 237.53 C 213.55 233.02 212.22 228.53 210.99 224.01 C 214.66 221.14 218.34 218.28 222.01 215.40 C 217.33 215.22 212.66 215.08 207.98 214.89 C 206.36 210.58 204.84 206.22 203.23 201.90 C 201.46 206.11 199.94 210.41 198.53 214.75 M 150.40 262.62 C 145.72 262.82 141.04 262.96 136.36 263.13 C 140.03 266.04 143.76 268.88 147.40 271.83 C 146.12 276.29 144.83 280.75 143.57 285.22 C 147.46 282.66 151.31 280.05 155.16 277.43 C 159.08 280.01 162.94 282.68 166.86 285.25 C 165.64 280.67 164.01 276.18 163.13 271.51 C 166.88 268.87 170.41 265.94 174.03 263.13 C 169.36 262.97 164.70 262.80 160.03 262.64 C 158.36 258.33 156.89 253.94 155.24 249.62 C 153.47 253.89 152.01 258.28 150.40 262.62 M 246.58 249.52 C 245.01 253.90 243.44 258.28 241.80 262.64 C 237.13 262.80 232.46 262.98 227.80 263.12 C 231.46 266.05 235.19 268.89 238.84 271.83 C 237.54 276.29 236.26 280.76 234.98 285.22 C 238.93 282.68 242.75 279.95 246.72 277.43 C 250.53 280.09 254.39 282.66 258.26 285.24 C 257.00 280.74 255.69 276.26 254.45 271.76 C 258.11 268.87 261.80 266.03 265.46 263.14 C 260.78 262.96 256.11 262.81 251.44 262.63 C 249.80 258.26 248.29 253.85 246.58 249.52 M 333.31 262.58 C 328.62 262.86 323.92 262.94 319.22 263.14 C 322.90 266.05 326.63 268.89 330.27 271.84 C 328.99 276.30 327.67 280.75 326.41 285.23 C 330.33 282.68 334.17 280.03 338.05 277.43 C 341.94 280.02 345.79 282.67 349.70 285.23 C 348.41 280.75 347.13 276.27 345.89 271.78 C 349.53 268.85 353.24 266.02 356.91 263.14 C 352.19 262.92 347.46 262.90 342.75 262.53 C 341.31 258.26 339.76 254.02 338.14 249.81 C 336.18 253.92 334.92 258.32 333.31 262.58 M 424.69 262.63 C 420.01 262.81 415.33 262.96 410.66 263.12 C 414.32 266.06 418.06 268.88 421.70 271.84 C 420.41 276.30 419.12 280.77 417.85 285.24 C 421.68 282.67 425.57 280.17 429.29 277.44 C 433.36 279.86 437.16 282.69 441.14 285.25 C 439.86 280.74 438.52 276.26 437.32 271.74 C 440.97 268.87 444.68 266.07 448.27 263.13 C 443.61 262.96 438.95 262.81 434.29 262.63 C 432.68 258.26 431.12 253.87 429.52 249.50 C 427.83 253.85 426.30 258.26 424.69 262.63 M 246.62 348.06 C 245.01 352.50 243.48 356.96 241.73 361.34 C 237.10 361.44 232.48 361.61 227.87 361.81 C 231.48 364.72 235.17 367.55 238.82 370.43 C 237.58 374.93 236.23 379.41 234.99 383.92 C 238.89 381.30 242.76 378.65 246.68 376.07 C 250.51 378.73 254.39 381.31 258.27 383.90 C 256.99 379.43 255.73 374.95 254.43 370.49 C 258.03 367.51 261.78 364.73 265.42 361.80 C 260.79 361.62 256.16 361.43 251.52 361.35 C 249.78 356.96 248.26 352.49 246.62 348.06 M 333.25 361.29 C 328.60 361.48 323.95 361.59 319.30 361.81 C 322.93 364.81 326.79 367.52 330.32 370.65 C 328.89 375.02 327.68 379.47 326.42 383.90 C 330.31 381.32 334.18 378.69 338.05 376.07 C 341.94 378.68 345.82 381.31 349.71 383.92 C 348.43 379.41 347.09 374.91 345.91 370.38 C 349.56 367.52 353.22 364.69 356.86 361.81 C 352.19 361.59 347.52 361.48 342.86 361.29 C 341.32 357.08 339.84 352.86 338.23 348.68 C 335.93 352.59 335.01 357.13 333.25 361.29 M 429.46 348.13 C 427.86 352.53 426.30 356.94 424.65 361.32 C 420.00 361.45 415.35 361.60 410.70 361.80 C 414.34 364.73 418.08 367.54 421.71 370.50 C 420.41 374.96 419.11 379.43 417.85 383.90 C 421.72 381.31 425.60 378.73 429.44 376.08 C 433.36 378.64 437.22 381.31 441.14 383.91 C 439.87 379.42 438.55 374.94 437.31 370.44 C 440.93 367.52 444.65 364.71 448.29 361.80 C 443.64 361.61 438.99 361.45 434.34 361.32 C 432.65 356.95 431.16 352.50 429.46 348.13 M 294.56 397.02 C 293.01 401.41 291.42 405.79 289.81 410.16 C 285.15 410.40 280.49 410.47 275.83 410.73 C 279.45 413.65 283.14 416.48 286.79 419.35 C 285.59 423.83 284.15 428.25 283.07 432.78 C 286.94 430.19 290.76 427.52 294.67 425.00 C 298.48 427.65 302.34 430.23 306.21 432.79 C 305.18 428.23 303.16 423.73 302.74 419.16 C 306.12 416.21 309.88 413.73 313.24 410.76 C 308.62 410.45 303.99 410.42 299.37 410.15 C 297.78 405.77 296.21 401.38 294.56 397.02 M 385.68 398.09 C 384.06 402.07 382.78 406.17 381.23 410.18 C 376.55 410.39 371.87 410.50 367.19 410.72 C 370.87 413.59 374.54 416.48 378.23 419.35 C 377.00 423.85 375.64 428.32 374.39 432.82 C 378.29 430.24 382.14 427.60 386.03 425.01 C 389.92 427.61 393.78 430.24 397.68 432.83 C 396.39 428.32 395.06 423.83 393.87 419.30 C 397.54 416.45 401.20 413.58 404.87 410.73 C 400.19 410.50 395.51 410.39 390.84 410.18 C 389.29 406.20 388.02 402.13 386.42 398.19 C 386.23 398.16 385.86 398.12 385.68 398.09 Z" />
<path fill="#000000" opacity="1.00" d=" M 989.00 34.00 C 1144.34 34.05 1299.68 33.90 1455.01 34.08 C 1435.27 74.34 1415.46 114.57 1395.75 154.85 C 1340.82 155.20 1285.88 154.90 1230.95 155.00 C 1178.96 155.00 1126.97 155.00 1074.98 155.00 C 1071.05 162.42 1067.43 169.99 1063.52 177.42 C 1062.08 180.07 1061.22 182.97 1060.58 185.90 C 1167.12 186.20 1273.65 185.79 1380.19 186.11 C 1360.66 226.49 1340.71 266.67 1321.00 306.97 C 1219.65 307.01 1118.30 307.01 1016.95 306.99 C 1012.20 317.27 1006.59 327.20 1002.61 337.81 C 1062.39 338.26 1122.19 337.87 1181.98 338.00 C 1223.25 337.97 1264.53 338.05 1305.80 338.06 C 1287.46 374.98 1269.50 412.10 1251.13 449.01 C 1163.75 448.98 1076.38 449.01 989.00 449.00 C 989.00 310.67 989.00 172.33 989.00 34.00 Z" />
<path fill="#000000" opacity="1.00" d=" M 185.50 411.70 C 188.83 414.14 192.00 416.80 195.32 419.26 C 194.68 421.90 193.93 424.52 193.11 427.12 C 190.43 422.05 187.96 416.87 185.50 411.70 Z" />
<path fill="#000000" opacity="1.00" d=" M 218.71 479.10 C 301.14 478.90 383.57 479.07 465.99 479.02 C 466.01 514.68 466.00 550.34 466.00 586.00 C 401.00 585.99 336.01 586.03 271.02 585.97 C 253.63 550.32 235.91 514.84 218.71 479.10 Z" />
<path fill="#000000" opacity="1.00" d=" M 989.00 479.02 C 1071.43 479.07 1153.86 478.90 1236.29 479.10 C 1219.09 514.84 1201.37 550.33 1183.98 585.97 C 1118.99 586.03 1053.99 585.99 989.00 586.00 C 989.00 550.34 989.00 514.68 989.00 479.02 Z" />
</g>
</svg>
